<?xml version="1.0" encoding="utf-8"?>
<!-- Generator: Adobe Illustrator 23.1.0, SVG Export Plug-In . SVG Version: 6.00 Build 0)  -->
<svg version="1.1" id="Calque_1" xmlns="http://www.w3.org/2000/svg" xmlns:xlink="http://www.w3.org/1999/xlink" x="0px" y="0px"
	 viewBox="0 0 100 18.5" style="enable-background:new 0 0 100 18.5;" xml:space="preserve">
<style type="text/css">
	.st0{fill:#FFFFFF;}
	.st1{fill:#0C4C60;}
</style>
<script  id="__gaOptOutExtension" xmlns=""></script>
<title>logo_new</title>
<path class="st0" d="M15.9,7.8l-1.5,4c-0.1,0.2-0.2,0.3-0.4,0.3l-0.4,0.1c-0.1,0-0.3,0-0.4-0.1L12,10.9c0,0-0.1,0-0.1,0
	c0,0,0,0,0,0.1l0.8,1.9c0,0,0,0.1,0,0.1l0.2,1.4c0,0.2-0.1,0.4-0.2,0.5l-2.5,1.3c-0.1,0.1-0.3,0.1-0.5,0l-2.5-1.3
	C7.1,14.7,7,14.5,7,14.3L7.2,13c0-0.1,0-0.1,0.1-0.2l1-1.8c0-0.1,0-0.1-0.1-0.1l-1.6,1.1c-0.1,0.1-0.2,0.1-0.4,0.1l-0.4-0.1
	c-0.2,0-0.3-0.1-0.4-0.3L4,7.8C4,7.6,4,7.4,4.2,7.3l3-1.9c0.2-0.1,0.4-0.1,0.5,0l1.9,1.4c0.2,0.1,0.4,0.1,0.6,0l1.9-1.4
	c0.2-0.1,0.4-0.1,0.6,0l3,1.9C15.9,7.4,15.9,7.6,15.9,7.8"/>
<path class="st1" d="M15.9,7.8l-1.5,4c-0.1,0.2-0.2,0.3-0.4,0.3l-0.4,0.1c-0.1,0-0.3,0-0.4-0.1L12,10.9c0,0-0.1,0-0.1,0
	c0,0,0,0,0,0.1l0.8,1.9c0,0,0,0.1,0,0.1l0.3,1.4c0,0.2-0.1,0.4-0.2,0.5l-2.5,1.3c-0.1,0.1-0.3,0.1-0.5,0l-2.5-1.3
	C7.1,14.7,7,14.5,7,14.3L7.3,13c0-0.1,0-0.1,0.1-0.2l1-1.8c0-0.1,0-0.1-0.1-0.1l-1.6,1.1c-0.1,0.1-0.2,0.1-0.4,0.1l-0.4-0.1
	c-0.2,0-0.3-0.1-0.4-0.3l-1.5-4C4,7.6,4.1,7.4,4.2,7.3l3-1.9c0.2-0.1,0.4-0.1,0.5,0l1.9,1.4c0.2,0.1,0.4,0.1,0.6,0l1.9-1.4
	c0.2-0.1,0.4-0.1,0.6,0l3,1.9C15.9,7.4,16,7.6,15.9,7.8 M19.4,7.1l-0.6-0.9c-0.2-0.2-0.4-0.4-0.7-0.4l-1.1,0l-2.8-3.9
	c-0.1-0.2-0.3-0.3-0.5-0.3l-3.6-1c-0.2,0-0.3,0-0.5,0l-3.6,1C5.9,1.7,5.7,1.8,5.6,1.9L2.9,5.8l-1.1,0C1.5,5.9,1.2,6,1.1,6.3L0.5,7.1
	C0.3,7.4,0.3,7.7,0.4,7.9l0.5,1.3C1,9.5,1.2,9.7,1.4,9.8l0.9,0.3c0.2,0.1,0.3,0.2,0.4,0.3L4.4,13c0,0.1,0.1,0.1,0.1,0.2l0.8,2.1
	c0.1,0.2,0.2,0.4,0.4,0.5l3.8,2.1c0.3,0.1,0.6,0.1,0.8,0l3.9-2.1c0.2-0.1,0.3-0.3,0.4-0.5l0.8-2.2c0-0.1,0.1-0.1,0.1-0.2l1.7-2.4
	c0.1-0.1,0.2-0.3,0.4-0.3l0.9-0.3c0.2-0.1,0.4-0.3,0.5-0.5l0.5-1.3C19.6,7.7,19.6,7.4,19.4,7.1"/>
<path class="st1" d="M6.8,8.1l0.5-0.3c0.1,0,0.1,0,0.2,0l0.3,0.3c0,0,0.1,0.1,0.1,0.1v1.3c0,0.1-0.1,0.1-0.1,0.1L7.1,9.7
	c0,0-0.1,0-0.1,0L6.8,9.6c0,0-0.1-0.1-0.1-0.1V8.2C6.7,8.2,6.7,8.1,6.8,8.1"/>
<path class="st1" d="M12.2,8.1l0.3-0.3c0,0,0.1-0.1,0.2,0l0.5,0.3c0,0,0.1,0.1,0.1,0.1v1.2c0,0.1,0,0.1-0.1,0.1l-0.2,0.1
	c0,0-0.1,0-0.1,0l-0.5-0.1c-0.1,0-0.1-0.1-0.1-0.1V8.2C12.2,8.2,12.2,8.1,12.2,8.1"/>
<path class="st1" d="M9.9,10.9l-0.8,0.2c0,0,0,0,0,0.1l0.8,0.9c0,0,0.1,0,0.1,0l0.8-0.9c0,0,0,0,0,0c0,0,0,0,0,0L10,10.9
	C10,10.9,9.9,10.9,9.9,10.9z"/>
<path class="st1" d="M9.9,15l-1.4-0.3c0,0,0,0,0,0l1.3,0.7c0.1,0,0.1,0,0.2,0l1.4-0.7c0,0,0,0,0,0L10,15C10,15,9.9,15,9.9,15"/>
<path class="st1" d="M27.9,7.6c1.4,0,2.6,0.9,3,2.1h-6C25.3,8.5,26.6,7.6,27.9,7.6 M30.3,12.9c-1.2,1.3-3.2,1.4-4.5,0.3
	c-0.4-0.4-0.7-0.8-0.9-1.3h8.3c0.6-2.9-1.3-5.8-4.3-6.3s-5.8,1.3-6.3,4.3c-0.6,2.9,1.3,5.8,4.3,6.3c2.5,0.5,5-0.8,6-3.2H30.3z"/>
<path class="st1" d="M49.4,5.3c-3,0-5.4,2.4-5.4,5.4s2.4,5.4,5.4,5.4s5.4-2.4,5.4-5.4C54.8,7.7,52.4,5.3,49.4,5.3 M49.5,13.9
	c-1.8,0-3.2-1.4-3.2-3.2c0-1.8,1.4-3.2,3.2-3.2c1.8,0,3.2,1.4,3.2,3.2c0,0,0,0,0,0C52.6,12.5,51.2,13.9,49.5,13.9L49.5,13.9"/>
<path class="st1" d="M70.5,5.3c-3,0-5.4,2.4-5.4,5.4s2.4,5.4,5.4,5.4s5.4-2.4,5.4-5.4c0,0,0,0,0,0C75.9,7.7,73.5,5.3,70.5,5.3
	 M70.5,13.9c-1.8,0-3.2-1.4-3.2-3.2s1.4-3.2,3.2-3.2c1.8,0,3.2,1.4,3.2,3.2S72.3,13.9,70.5,13.9L70.5,13.9"/>
<path class="st1" d="M94.2,5.3c-3,0-5.4,2.4-5.4,5.4s2.4,5.4,5.4,5.4c3,0,5.4-2.4,5.4-5.4c0,0,0,0,0,0C99.6,7.7,97.2,5.3,94.2,5.3
	 M94.2,13.9c-1.8,0-3.2-1.4-3.2-3.2s1.4-3.2,3.2-3.2s3.2,1.4,3.2,3.2S96,13.9,94.2,13.9L94.2,13.9"/>
<path class="st1" d="M88,6.5v-1h-2.2v1c0,1.8-1.4,3.2-3.2,3.2c-1.1,0-2.3,0.4-3.2,1V5.5h-2.2v10.3h2.2l0-0.8c0-1.8,1.4-3.2,3.2-3.2
	c0,0,0,0,0,0c1.8,0,3.2,1.6,3.2,3.4v0.6H88v-0.6c0-1.8-0.8-3.5-2.1-4.5C87.2,9.8,88,8.2,88,6.5"/>
<path class="st1" d="M39.9,13.9c-1.8,0-3.2-1.4-3.2-3.2s1.4-3.2,3.2-3.2c0.8,0,1.6,0.3,2.2,0.9l1.6-1.6c-2.1-2.1-5.5-2.1-7.6,0.1
	C34,9,34,12.4,36.1,14.5c2.1,2,5.4,2.1,7.5,0.1L42,13C41.5,13.6,40.7,13.9,39.9,13.9"/>
<path class="st1" d="M61.7,5.5v5.2c0,1.8-1.4,3.2-3.2,3.2c-0.8,0-1.7-0.3-2.2-0.9l-1.6,1.6c2.1,2.1,5.5,2.1,7.6,0
	c1-1,1.6-2.4,1.6-3.8V5.5H61.7z"/>
</svg>
