<svg id="Logo-Sauter" xmlns="http://www.w3.org/2000/svg" width="200" height="63.281" viewBox="0 0 200 63.281">
  <g id="Groupe_10558" data-name="Groupe 10558">
    <g id="Groupe_10559" data-name="Groupe 10559">
      <path id="Tracé_1343" data-name="Tracé 1343" d="M4.335,52.495V60.7c0,.24-.075.3-.315.3H3.18c-.24,0-.315-.06-.315-.3V52.495H.54c-.255,0-.3-.09-.3-.3V51.58c0-.239.105-.285.3-.285H6.66c.2,0,.3.046.3.285v.615c0,.21-.045.3-.3.3Z" fill="#4a4a49"/>
      <path id="Tracé_1344" data-name="Tracé 1344" d="M15.36,56.5c0,2-.21,2.911-.93,3.705a3.775,3.775,0,0,1-2.805.93,3.775,3.775,0,0,1-2.805-.93c-.72-.794-.93-1.709-.93-3.705v-.689c0-1.995.21-2.925.93-3.72a3.779,3.779,0,0,1,2.805-.93,3.779,3.779,0,0,1,2.805.93c.72.8.93,1.725.93,3.72Zm-1.515-.524c0-1.5-.045-2.415-.54-2.985a2.027,2.027,0,0,0-1.68-.63,2.027,2.027,0,0,0-1.68.63c-.495.57-.54,1.485-.54,2.985v.345c0,1.5.045,2.415.54,2.984a2.027,2.027,0,0,0,1.68.63,2.027,2.027,0,0,0,1.68-.63c.495-.569.54-1.484.54-2.984Z" fill="#4a4a49"/>
      <path id="Tracé_1345" data-name="Tracé 1345" d="M24.3,57.79a3.317,3.317,0,0,1-.855,2.535,3.777,3.777,0,0,1-2.685.81,3.716,3.716,0,0,1-2.67-.81,3.3,3.3,0,0,1-.855-2.535V51.61c0-.24.09-.315.315-.315h.84c.225,0,.315.075.315.315v6.1a2.4,2.4,0,0,0,.435,1.665,2.1,2.1,0,0,0,1.62.555A2.071,2.071,0,0,0,22.4,59.38a2.484,2.484,0,0,0,.435-1.665v-6.1c0-.24.09-.315.33-.315h.81c.24,0,.33.075.33.315Z" fill="#4a4a49"/>
      <path id="Tracé_1346" data-name="Tracé 1346" d="M29.745,52.495V60.7c0,.24-.075.3-.315.3h-.84c-.24,0-.315-.06-.315-.3V52.495H25.95c-.255,0-.3-.09-.3-.3V51.58c0-.239.1-.285.3-.285h6.12c.195,0,.3.046.3.285v.615c0,.21-.045.3-.3.3Z" fill="#4a4a49"/>
      <path id="Tracé_1347" data-name="Tracé 1347" d="M38.774,59.41c0,.3.105.4.435.4h2.625c.255,0,.315.06.315.27v.645c0,.195-.06.27-.315.27h-3.09c-1.05,0-1.44-.45-1.44-1.35V51.61c0-.24.09-.315.33-.315h.81c.24,0,.33.075.33.315Z" fill="#4a4a49"/>
      <path id="Tracé_1348" data-name="Tracé 1348" d="M45.57,61c-1.29,0-1.815-.315-1.935-1.725-.075-.839-.12-1.98-.12-2.865v-.585c0-.8,0-2.07.09-2.894.12-1.29.675-1.636,1.98-1.636h3.45c.255,0,.3.075.3.3v.6c0,.21-.045.3-.3.3h-3.33c-.42,0-.645.151-.675.556-.045.585-.075,1.47-.075,2.354h3.48c.255,0,.3.075.3.285v.616c0,.194-.045.284-.3.284h-3.48a23.051,23.051,0,0,0,.1,2.7c.045.39.225.525.63.525h3.33c.27,0,.315.075.315.285v.615c0,.21-.045.285-.315.285Z" fill="#4a4a49"/>
      <path id="Tracé_1349" data-name="Tracé 1349" d="M60.839,52.031a.761.761,0,0,1-.12.36l-.225.45a.24.24,0,0,1-.195.135.489.489,0,0,1-.195-.06,4.1,4.1,0,0,0-1.995-.555,2.045,2.045,0,0,0-1.59.54c-.435.465-.615,1.125-.615,3.075v.345c0,1.935.1,2.535.54,3.029a2.313,2.313,0,0,0,1.845.585,6.607,6.607,0,0,0,1.92-.359.935.935,0,0,1,.24-.061.177.177,0,0,1,.18.136l.09.284a1.671,1.671,0,0,1,.1.481.234.234,0,0,1-.18.224,8.039,8.039,0,0,1-2.565.495,3.666,3.666,0,0,1-2.82-.87c-.69-.734-.87-1.679-.87-3.764v-.69c0-2.355.345-3.3,1.215-3.975a3.992,3.992,0,0,1,2.49-.675,5.331,5.331,0,0,1,2.595.675c.1.06.15.12.15.195" fill="#4a4a49"/>
      <path id="Tracé_1350" data-name="Tracé 1350" d="M69.779,56.5c0,2-.21,2.911-.93,3.705a4.7,4.7,0,0,1-5.61,0c-.72-.794-.93-1.709-.93-3.705v-.689c0-1.995.21-2.925.93-3.72a4.7,4.7,0,0,1,5.61,0c.72.8.93,1.725.93,3.72Zm-1.515-.524c0-1.5-.045-2.415-.54-2.985a2.555,2.555,0,0,0-3.36,0c-.495.57-.54,1.485-.54,2.985v.345c0,1.5.045,2.415.54,2.984a2.555,2.555,0,0,0,3.36,0c.5-.569.54-1.484.54-2.984Z" fill="#4a4a49"/>
      <path id="Tracé_1351" data-name="Tracé 1351" d="M73.154,53.441h-.075v7.244c0,.256-.075.316-.315.316h-.72c-.24,0-.315-.06-.315-.316V51.716c0-.345.105-.421.45-.421h.795a.661.661,0,0,1,.705.421l3.885,7.14h.075V51.611c0-.24.075-.316.315-.316h.72c.24,0,.314.076.314.316V60.6c0,.33-.1.406-.449.406h-.795a.669.669,0,0,1-.705-.406Z" fill="#4a4a49"/>
      <path id="Tracé_1352" data-name="Tracé 1352" d="M83.294,52.495c-.27,0-.42.03-.51.15a.826.826,0,0,0-.12.525v2.28h3.39c.24,0,.3.075.3.3v.6c0,.21-.06.3-.3.3h-3.39V60.7c0,.24-.075.3-.315.3h-.84c-.24,0-.315-.06-.315-.3V52.87a1.549,1.549,0,0,1,.391-1.185,1.644,1.644,0,0,1,1.214-.39h3.6c.195,0,.3.046.3.285v.63c0,.21-.075.285-.3.285Z" fill="#4a4a49"/>
      <path id="Tracé_1353" data-name="Tracé 1353" d="M95.444,56.5c0,2-.21,2.911-.93,3.705a4.7,4.7,0,0,1-5.61,0c-.72-.794-.93-1.709-.93-3.705v-.689c0-1.995.21-2.925.93-3.72a4.7,4.7,0,0,1,5.61,0c.72.8.93,1.725.93,3.72Zm-1.515-.524c0-1.5-.045-2.415-.54-2.985a2.555,2.555,0,0,0-3.36,0c-.5.57-.54,1.485-.54,2.985v.345c0,1.5.045,2.415.54,2.984a2.555,2.555,0,0,0,3.36,0c.5-.569.54-1.484.54-2.984Z" fill="#4a4a49"/>
      <path id="Tracé_1354" data-name="Tracé 1354" d="M97.394,51.716c0-.241.105-.375.3-.406a17.862,17.862,0,0,1,2.295-.15c2.355,0,3.554.705,3.554,2.745v.285a2.453,2.453,0,0,1-1.814,2.655l2.115,3.555c.165.27.24.375.24.465s-.06.135-.211.135h-.959a.4.4,0,0,1-.42-.225c-.66-1.155-1.5-2.6-2.145-3.765-.21.015-.48.015-.705.015-.21,0-.525,0-.78-.015v3.674c0,.256-.09.316-.33.316h-.81c-.24,0-.33-.06-.33-.316Zm1.47,4.109c.3.015.69.03,1.08.03,1.589,0,2.13-.39,2.13-1.71V53.95c0-1.2-.48-1.6-2.01-1.6a9.016,9.016,0,0,0-.99.044.222.222,0,0,0-.21.24Z" fill="#4a4a49"/>
      <path id="Tracé_1355" data-name="Tracé 1355" d="M108.914,52.495V60.7c0,.24-.075.3-.314.3h-.841c-.24,0-.316-.06-.316-.3V52.495h-2.324c-.255,0-.3-.09-.3-.3V51.58c0-.239.105-.285.3-.285h6.119c.2,0,.3.046.3.285v.615c0,.21-.045.3-.3.3Z" fill="#4a4a49"/>
      <path id="Tracé_1356" data-name="Tracé 1356" d="M112.139,59.321c.6,0,.87.27.87.93v.134a3.884,3.884,0,0,1-.3,1.4,5.09,5.09,0,0,1-.84,1.38c-.06.075-.105.12-.179.12a.425.425,0,0,1-.24-.091L111.134,63c-.09-.061-.135-.106-.135-.181a.316.316,0,0,1,.076-.164,3.875,3.875,0,0,0,.644-1.141c.045-.165.016-.254-.09-.314l-.224-.12c-.225-.12-.3-.3-.3-.675v-.36q0-.72.81-.72Z" fill="#4a4a49"/>
      <path id="Tracé_1357" data-name="Tracé 1357" d="M118.2,60.7c-.15-.061-.225-.135-.225-.255a1.254,1.254,0,0,1,.045-.315l.119-.465c.031-.135.106-.18.2-.18a.676.676,0,0,1,.24.06,7.079,7.079,0,0,0,2.324.405c1.381,0,1.785-.42,1.785-1.561V58.24c0-1.005-.24-1.245-1.439-1.53l-1.02-.24c-1.576-.375-2.22-1.005-2.22-2.505v-.24c0-1.71,1.005-2.565,3.075-2.565a7.828,7.828,0,0,1,2.28.315c.18.06.254.121.254.225a2.559,2.559,0,0,1-.1.465l-.09.33c-.031.135-.1.21-.21.21a.522.522,0,0,1-.2-.045,5.943,5.943,0,0,0-1.889-.314c-1.216,0-1.71.419-1.71,1.409v.15c0,.945.435,1.14,1.41,1.365l1.02.24c1.544.36,2.22.87,2.22,2.61v.18c0,2.085-.975,2.835-3.256,2.835A8.336,8.336,0,0,1,118.2,60.7" fill="#4a4a49"/>
      <path id="Tracé_1358" data-name="Tracé 1358" d="M129.254,51.295c.494,0,.645.06.795.48.855,2.415,1.845,5.58,2.67,8.58a1.871,1.871,0,0,1,.105.465c0,.12-.076.18-.3.18H131.8c-.344,0-.434-.03-.51-.315-.164-.675-.389-1.53-.615-2.31H127.2c-.226.78-.452,1.635-.616,2.31-.075.285-.166.315-.509.315h-.721c-.225,0-.3-.06-.3-.18a1.871,1.871,0,0,1,.1-.465c.825-3,1.815-6.165,2.67-8.58.15-.42.3-.48.794-.48Zm-.36,1.455c-.465,1.365-.931,2.94-1.351,4.38h2.791c-.419-1.44-.885-3.015-1.35-4.38Z" fill="#4a4a49"/>
      <path id="Tracé_1359" data-name="Tracé 1359" d="M135.658,53.441h-.074v7.244c0,.256-.075.316-.316.316h-.719c-.241,0-.315-.06-.315-.316V51.716c0-.345.105-.421.449-.421h.795a.66.66,0,0,1,.705.421l3.885,7.14h.075V51.611c0-.24.076-.316.316-.316h.719c.24,0,.315.076.315.316V60.6c0,.33-.1.406-.45.406h-.795a.67.67,0,0,1-.705-.406Z" fill="#4a4a49"/>
      <path id="Tracé_1360" data-name="Tracé 1360" d="M143.5,60.7c-.15-.061-.225-.135-.225-.255a1.254,1.254,0,0,1,.045-.315l.119-.465c.031-.135.106-.18.2-.18a.676.676,0,0,1,.24.06,7.079,7.079,0,0,0,2.324.405c1.381,0,1.785-.42,1.785-1.561V58.24c0-1.005-.24-1.245-1.439-1.53l-1.02-.24c-1.576-.375-2.22-1.005-2.22-2.505v-.24c0-1.71,1-2.565,3.075-2.565a7.828,7.828,0,0,1,2.28.315c.18.06.254.121.254.225a2.558,2.558,0,0,1-.1.465l-.09.33c-.031.135-.1.21-.21.21a.523.523,0,0,1-.2-.045,5.943,5.943,0,0,0-1.889-.314c-1.216,0-1.71.419-1.71,1.409v.15c0,.945.435,1.14,1.41,1.365l1.02.24c1.544.36,2.22.87,2.22,2.61v.18c0,2.085-.975,2.835-3.256,2.835A8.336,8.336,0,0,1,143.5,60.7" fill="#4a4a49"/>
      <path id="Tracé_1361" data-name="Tracé 1361" d="M156.539,61c-1.291,0-1.815-.315-1.936-1.725-.075-.839-.12-1.98-.12-2.865v-.585c0-.8,0-2.07.091-2.894.119-1.29.674-1.636,1.979-1.636H160c.254,0,.3.075.3.3v.6c0,.21-.045.3-.3.3h-3.33c-.42,0-.646.151-.676.556-.045.585-.074,1.47-.074,2.354H159.4c.255,0,.3.075.3.285v.616c0,.194-.045.284-.3.284h-3.479a23.081,23.081,0,0,0,.1,2.7c.045.39.226.525.63.525h3.33c.27,0,.315.075.315.285v.615c0,.21-.045.285-.315.285Z" fill="#4a4a49"/>
      <path id="Tracé_1362" data-name="Tracé 1362" d="M164.2,52.495c-.27,0-.42.03-.51.15a.826.826,0,0,0-.12.525v2.28h3.39c.24,0,.3.075.3.3v.6c0,.21-.061.3-.3.3h-3.39V60.7c0,.24-.075.3-.315.3h-.84c-.24,0-.315-.06-.315-.3V52.87a1.553,1.553,0,0,1,.391-1.185,1.645,1.645,0,0,1,1.215-.39h3.6c.2,0,.3.046.3.285v.63c0,.21-.075.285-.3.285Z" fill="#4a4a49"/>
      <path id="Tracé_1363" data-name="Tracé 1363" d="M171.238,52.495c-.27,0-.42.03-.51.15a.826.826,0,0,0-.12.525v2.28H174c.24,0,.3.075.3.3v.6c0,.21-.061.3-.3.3h-3.39V60.7c0,.24-.075.3-.315.3h-.84c-.24,0-.315-.06-.315-.3V52.87a1.553,1.553,0,0,1,.391-1.185,1.645,1.645,0,0,1,1.215-.39h3.6c.2,0,.3.046.3.285v.63c0,.21-.075.285-.3.285Z" fill="#4a4a49"/>
      <path id="Tracé_1364" data-name="Tracé 1364" d="M183.389,56.5c0,2-.211,2.911-.931,3.705a4.7,4.7,0,0,1-5.61,0c-.719-.794-.93-1.709-.93-3.705v-.689c0-1.995.211-2.925.93-3.72a4.7,4.7,0,0,1,5.61,0c.72.8.931,1.725.931,3.72Zm-1.516-.524c0-1.5-.045-2.415-.54-2.985a2.555,2.555,0,0,0-3.36,0c-.5.57-.539,1.485-.539,2.985v.345c0,1.5.044,2.415.539,2.984a2.555,2.555,0,0,0,3.36,0c.5-.569.54-1.484.54-2.984Z" fill="#4a4a49"/>
      <path id="Tracé_1365" data-name="Tracé 1365" d="M185.338,51.716c0-.241.106-.375.3-.406a17.85,17.85,0,0,1,2.295-.15c2.354,0,3.555.705,3.555,2.745v.285a2.454,2.454,0,0,1-1.816,2.655l2.115,3.555c.166.27.24.375.24.465s-.06.135-.209.135h-.961a.4.4,0,0,1-.42-.225c-.66-1.155-1.5-2.6-2.145-3.765-.21.015-.48.015-.705.015-.21,0-.525,0-.779-.015v3.674c0,.256-.09.316-.33.316h-.811c-.24,0-.33-.06-.33-.316Zm1.471,4.109c.3.015.689.03,1.08.03,1.59,0,2.129-.39,2.129-1.71V53.95c0-1.2-.48-1.6-2.01-1.6a9.041,9.041,0,0,0-.99.044.221.221,0,0,0-.209.24Z" fill="#4a4a49"/>
      <path id="Tracé_1366" data-name="Tracé 1366" d="M196.858,52.495V60.7c0,.24-.075.3-.315.3h-.84c-.241,0-.315-.06-.315-.3V52.495h-2.325c-.255,0-.3-.09-.3-.3V51.58c0-.239.106-.285.3-.285h6.12c.2,0,.3.046.3.285v.615c0,.21-.046.3-.3.3Z" fill="#4a4a49"/>
      <path id="Tracé_1367" data-name="Tracé 1367" d="M14.271,33.048c1.009-.674,1.839-1.693,2.865-4.487L25.178,4.384A5.792,5.792,0,0,1,30.79,0h20a8.19,8.19,0,0,1-.89,2.165A4.4,4.4,0,0,1,48.281,3.7a4.155,4.155,0,0,1-1.583.276H40.593a4.92,4.92,0,0,0-1.182.172c-2.017.678-2.254,1.973-2.658,2.981L35.715,9.973l-8.488,25.4c-1.306,3.218-2.9,4.009-5.938,4.009H0L1.918,33.43s.467.462,2.369.462H11.3a5.88,5.88,0,0,0,2.967-.843" fill="#76ad1c"/>
      <path id="Tracé_1368" data-name="Tracé 1368" d="M48.566,18.537a2.24,2.24,0,0,1-1.248-.445c-1.369-1.134-.669-3.215-.669-3.215H64.332c4.616,0,6.151,2.041,4.654,6.587L64.9,33.9a19.582,19.582,0,0,0-1.237,5.539h-9.3l.378-2.559h-.115c-1.512,1.985-2.688,2.559-4.708,2.559H37.454c-4.732,0-6.225-1.775-4.016-8.514s4.871-8.517,9.6-8.517H57.185a1.672,1.672,0,0,0,1.827-1.146l.511-1.571c.274-.836-.145-1.149-1.064-1.149ZM46.74,26.27c-1.324,0-1.882.47-2.316,1.774L42.54,33.793c-.431,1.3-.176,1.775,1.152,1.775H52.58a2.089,2.089,0,0,0,2.32-1.775l2.466-7.523Z" fill="#76ad1c"/>
      <path id="Tracé_1369" data-name="Tracé 1369" d="M90.339,39.434l.592-2.507h-.112c-1.33,1.932-2.274,2.507-3.944,2.507H74.521c-4.618,0-6.146-2.039-4.653-6.583l4.081-12.433c.955-2.928.969-4.442.783-5.541H85.809l-6.2,18.916c-.434,1.3-.181,1.774,1.147,1.774H89.3c1.33,0,1.884-.47,2.314-1.774L96,20.418a19.709,19.709,0,0,0,1.244-5.541h10.625L101.625,33.9a19.41,19.41,0,0,0-1.241,5.539Z" fill="#76ad1c"/>
      <path id="Tracé_1370" data-name="Tracé 1370" d="M134.32,18.537h-9.309L120.246,33.06c-.667,2.039-.129,2.508,1.665,2.508h5.9c2.83,0,3.356-.26,4.038-.576l-1.476,4.443h-15.68c-4.039,0-5.877-2.144-4.3-6.95l4.575-13.948H109.32l1.224-3.659h5.627l1.644-5.016,10.055-.031-1.658,5.047h9.412Z" fill="#76ad1c"/>
      <path id="Tracé_1371" data-name="Tracé 1371" d="M165.9,35.568a6.292,6.292,0,0,1-2.213,3.273,5.232,5.232,0,0,1-2.552.593H139.009c-4.617,0-6.145-2.037-4.654-6.583l3.737-11.387c1.488-4.546,4.353-6.586,8.969-6.586h18.823c4.613,0,6.142,2.04,4.654,6.586l-2.6,7.94h-22.4L144.1,33.793c-.431,1.305-.178,1.775,1.152,1.775Zm-6.748-10.029,1.647-5.016c.427-1.309.181-1.778-1.146-1.778h-8.9c-1.326,0-1.882.469-2.317,1.778L146.8,25.539Z" fill="#76ad1c"/>
      <path id="Tracé_1372" data-name="Tracé 1372" d="M196.441,20.015a9.993,9.993,0,0,1-1.947.365h-6.94a2.072,2.072,0,0,0-2.165,1.308L181.357,33.9a19.379,19.379,0,0,0-1.243,5.54h-11.2a23.871,23.871,0,0,0,2.4-5.54l4.421-13.476c.96-2.928,1.054-4.5.783-5.542h10.1l-.468,2.666h.114c.938-1.984,2.434-2.666,5.548-2.666H200s-.25,3.772-3.559,5.138" fill="#76ad1c"/>
      <path id="Tracé_1373" data-name="Tracé 1373" d="M14.271,33.048c1.009-.674,1.839-1.693,2.865-4.487L25.178,4.384A5.792,5.792,0,0,1,30.79,0h20a8.19,8.19,0,0,1-.89,2.165A4.4,4.4,0,0,1,48.281,3.7a4.155,4.155,0,0,1-1.583.276H40.593a4.92,4.92,0,0,0-1.182.172c-2.017.678-2.254,1.973-2.658,2.981L35.715,9.973l-8.488,25.4c-1.306,3.218-2.9,4.009-5.938,4.009H0L1.918,33.43s.467.462,2.369.462H11.3a5.88,5.88,0,0,0,2.967-.843" fill="#76ad1c"/>
      <path id="Tracé_1374" data-name="Tracé 1374" d="M48.566,18.537a2.24,2.24,0,0,1-1.248-.445c-1.369-1.134-.669-3.215-.669-3.215H64.332c4.616,0,6.151,2.041,4.654,6.587L64.9,33.9a19.582,19.582,0,0,0-1.237,5.539h-9.3l.378-2.559h-.115c-1.512,1.985-2.688,2.559-4.708,2.559H37.454c-4.732,0-6.225-1.775-4.016-8.514s4.871-8.517,9.6-8.517H57.185a1.672,1.672,0,0,0,1.827-1.146l.511-1.571c.274-.836-.145-1.149-1.064-1.149ZM46.74,26.27c-1.324,0-1.882.47-2.316,1.774L42.54,33.793c-.431,1.3-.176,1.775,1.152,1.775H52.58a2.089,2.089,0,0,0,2.32-1.775l2.466-7.523Z" fill="#76ad1c"/>
      <path id="Tracé_1375" data-name="Tracé 1375" d="M90.339,39.434l.592-2.507h-.112c-1.33,1.932-2.274,2.507-3.944,2.507H74.521c-4.618,0-6.146-2.039-4.653-6.583l4.081-12.433c.955-2.928.969-4.442.783-5.541H85.809l-6.2,18.916c-.434,1.3-.181,1.774,1.147,1.774H89.3c1.33,0,1.884-.47,2.314-1.774L96,20.418a19.709,19.709,0,0,0,1.244-5.541h10.625L101.625,33.9a19.41,19.41,0,0,0-1.241,5.539Z" fill="#76ad1c"/>
      <path id="Tracé_1376" data-name="Tracé 1376" d="M134.32,18.537h-9.309L120.246,33.06c-.667,2.039-.129,2.508,1.665,2.508h5.9c2.83,0,3.356-.26,4.038-.576l-1.476,4.443h-15.68c-4.039,0-5.877-2.144-4.3-6.95l4.575-13.948H109.32l1.224-3.659h5.627l1.644-5.016,10.055-.031-1.658,5.047h9.412Z" fill="#76ad1c"/>
      <path id="Tracé_1377" data-name="Tracé 1377" d="M165.9,35.568a6.292,6.292,0,0,1-2.213,3.273,5.232,5.232,0,0,1-2.552.593H139.009c-4.617,0-6.145-2.037-4.654-6.583l3.737-11.387c1.488-4.546,4.353-6.586,8.969-6.586h18.823c4.613,0,6.142,2.04,4.654,6.586l-2.6,7.94h-22.4L144.1,33.793c-.431,1.305-.178,1.775,1.152,1.775Zm-6.748-10.029,1.647-5.016c.427-1.309.181-1.778-1.146-1.778h-8.9c-1.326,0-1.882.469-2.317,1.778L146.8,25.539Z" fill="#76ad1c"/>
    </g>
  </g>
</svg>
