<!-- SPDX-FileCopyrightText: © 2024 Schneider Electric SPDX-License-Identifier: LicenseRef-Proprietary -->
<svg xmlns="http://www.w3.org/2000/svg" viewBox="0 0 312 64">
  <g fill="#009530">
    <path d="M12.17 40h-10V22.76c0-.67 0-1.62-1.09-1.62C0 21.14 0 22.1 0 22.76v17.37c0 1.49.14 1.62 1.76 1.62h10.28c.67 0 1.62 0 1.62-.8.13-.95-.81-.95-1.49-.95Zm4.46-13.33c-.95 0-.95.8-.95 1.48v12.52c0 .68 0 1.49.95 1.49s.95-.81.95-1.49V28.15c0-.54 0-1.48-.95-1.48Zm0-4.99c-.68 0-1.22.54-1.22 1.08 0 .67.54 1.08 1.22 1.08.67 0 1.21-.54 1.21-1.08s-.54-1.08-1.21-1.08Zm9.48 5.39h-2.03v-1.35c0-1.88.14-3.1 2.44-3.1h1.35c.54 0 .81-.4.81-.8 0 0 0-.4-.4-.68-.4-.13-1.36-.4-2.3-.4-.68 0-1.35.13-1.9.4-.67.27-1.08.68-1.35 1.21-.13.27-.4.95-.4 2.7v2.02h-1.76c-.27 0-1.22 0-1.22.67s.81.67 1.22.67h1.62v12.26c0 .67 0 1.48.95 1.48.94 0 .94-.8.94-1.48V28.41h2.03c.81 0 1.22-.26 1.22-.67 0-.67-.81-.67-1.22-.67Zm15.4 6.33c0-.13 0-1.75-.94-3.37a6.71 6.71 0 0 0-2.03-2.28c-.14 0-.14-.14-.27-.14 0 0-.14-.13-.27-.13-.27-.14-.4-.14-.68-.27-.13 0-.13 0-.27-.14-.27-.13-.54-.13-.81-.27h-.13c-.28 0-.68-.13-.95-.13h-.68c-2.3 0-4.19.67-5.4 2.15a8.04 8.04 0 0 0-1.9 5.52 8.7 8.7 0 0 0 1.76 5.53 7.07 7.07 0 0 0 2.3 1.61c.94.4 2.03.54 3.24.54 2.84 0 4.47-1.08 5.28-2.02a5.44 5.44 0 0 0 1.35-2.42c0-.4-.4-.81-.95-.81-.4 0-.8.27-.94.67a4.6 4.6 0 0 1-2.57 2.7c-.68.26-1.36.4-2.17.4-1.76 0-2.97-.54-3.92-1.75a7.12 7.12 0 0 1-1.35-4.31h10.41c1.08.13 1.9.13 1.9-1.08Zm-12.17-.27c.27-1.88 1.63-4.98 5.14-4.98 4.47 0 4.87 3.77 5 4.98H29.35Zm21.91-11.99c-1.08 0-1.08.95-1.08 1.62v17.78c0 .67 0 1.61 1.08 1.61s1.08-.94 1.08-1.61V22.63c0-.68 0-1.49-1.08-1.49Zm34.9 10.78c.68 0 1.08-.54 1.08-1.08V18.58h-2.16v12.26c0 .4.4 1.08 1.08 1.08Zm-20.29 2.55c-.13-.13-.27-.13-.4-.13h-.14c-1.08-.4-2.3-.8-3.52-.94-1.21-.27-2.3-.54-3.1-.95-.95-.4-1.36-1.07-1.36-1.88 0-1.62 1.9-2.3 3.79-2.3 2.03 0 3.51.82 3.92 2.03.27.8.54.94.95.94.8 0 .94-.8.94-.8a3.2 3.2 0 0 0-.94-1.9 4.12 4.12 0 0 0-1.76-1.2 7.8 7.8 0 0 0-3.25-.54c-2.16 0-3.78.54-4.73 1.75-.95 1.08-.95 2.15-.95 2.42a3.1 3.1 0 0 0 1.5 2.7c.94.67 1.88.8 3.91 1.34.54.14 1.08.27 1.76.4h.14c1.08.28 3.1.82 3.1 2.57 0 1.34-1.35 2.82-4.32 2.82-2.16 0-3.65-.8-4.46-2.42-.27-.4-.4-.94-.95-.94-.27 0-.4.13-.68.27-.13.13-.27.4-.27.54 0 .8.68 2.02 1.63 2.82.54.4.94.68 1.62.81.81.27 1.76.4 2.97.4 2.44 0 4.33-.53 5.41-1.75a4.32 4.32 0 0 0 1.08-2.69 3.16 3.16 0 0 0-1.89-3.37Zm45.04-6.19a5.92 5.92 0 0 0-4.33-1.61c-2.98 0-4.2 1.48-5.14 2.42v-1.08c0-.4 0-.94-.27-1.2h-.14c-.13-.14-.27-.14-.54-.14-.94 0-.94.8-.94 1.48v12.52c0 .68 0 1.49.94 1.49.27 0 .4 0 .54-.14h.14c.27-.27.27-.8.27-1.21v-5.39c0-2.42.13-3.63.54-4.58.4-.8 1.08-1.48 1.9-1.88.8-.4 1.75-.68 2.56-.68 1.35 0 2.44.54 3.11 1.35.54.8.68 1.89.68 2.96v8.08c0 .4 0 .95.27 1.22h.13c.14.13.27.13.55.13.94 0 .94-.8.94-1.48v-8.48c0-.68 0-2.56-1.22-3.78Z" />
    <path d="M89.11 20.88v2.15a9.04 9.04 0 0 1 6.09 8.48 8.93 8.93 0 0 1-9.06 8.9 8.9 8.9 0 0 1-3.11-17.25v-2.15a10.87 10.87 0 0 0-7.85 10.5c0 6.06 5 10.91 10.96 10.91 6.08 0 10.95-4.98 10.95-10.9a10.62 10.62 0 0 0-7.98-10.64Zm80.21 2.28c-3.65-1.61-5.82-2.29-7.98-2.29-2.3 0-3.79.81-3.79 2.02 0 3.78 12.99 2.7 12.99 11.45 0 4.85-4.06 7.68-9.74 7.68-4.46 0-6.63-1.21-9.2-2.43v-5.38c3.66 2.42 5.82 3.23 8.66 3.23 2.43 0 3.78-.8 3.78-2.29 0-4.17-12.98-2.56-12.98-11.72 0-4.3 3.79-7.27 9.6-7.27 2.84 0 5.41.54 8.66 2.02v4.98Zm18.12 17.78a16.3 16.3 0 0 1-5.82 1.21c-6.08 0-9.87-3.5-9.87-8.75s4.06-8.89 9.74-8.89c1.75 0 3.92.4 5.81 1.08v4.04a9.19 9.19 0 0 0-4.33-1.21c-3.24 0-5.27 1.88-5.27 4.84 0 2.97 2.03 4.99 5.14 4.99 1.35 0 2.43-.27 4.87-1.22v3.91m49.9-16.56c-5.27 0-9.06 3.77-9.06 8.89 0 5.25 3.92 8.75 9.87 8.75 1.36 0 4.6 0 7.58-2.29V36.5c-2.57 1.75-4.2 2.42-6.36 2.42-3.38 0-5.4-1.75-5.68-4.71h12.3c.41-6.33-3.64-9.83-8.65-9.83Zm-3.24 7c.27-2.42 1.62-3.77 3.65-3.77s3.51 1.35 3.65 3.77h-7.3Zm19.61-6.73h-5.41v17.1h5.4v-17.1Zm14.86-8.09v8.9a10.37 10.37 0 0 0-4.46-1.08c-4.87 0-8.25 3.63-8.25 8.88 0 5.12 3.38 8.9 7.98 8.9 1.76 0 3.24-.55 4.73-1.76v1.35h5.41V16.56h-5.4Zm0 20.61a4.63 4.63 0 0 1-3.24 1.35c-2.57 0-4.2-2.02-4.2-5.12 0-3.37 1.63-5.39 4.33-5.39.95 0 2.3.4 2.98.94v8.22h.13Zm16.78-12.79c-5.28 0-9.06 3.77-9.06 8.89 0 5.25 3.92 8.75 9.87 8.75 1.35 0 4.6 0 7.7-2.29V36.5c-2.56 1.75-4.19 2.42-6.35 2.42-3.38 0-5.41-1.75-5.68-4.71h12.3c.28-6.33-3.78-9.83-8.78-9.83Zm-3.39 7c.27-2.42 1.63-3.77 3.66-3.77 2.02 0 3.51 1.35 3.78 3.77h-7.44Zm20.29-1.75c1.62-3.5 3.51-5.25 5.54-5.25 1.08 0 2.03.4 3.52 1.61l-1.49 4.72c-1.35-.95-2.3-1.22-3.24-1.22-2.03 0-3.25 1.89-4.47 4.99v7.4h-5.4V24.65h5.4v4.98M254.24 17.5c.54 1.35-.4 3.24-2.03 4.18-1.62.94-3.38.67-3.78-.67-.55-1.35.4-3.23 2.03-4.18 1.48-.94 3.24-.67 3.78.68Zm-47.46 13.48c0-4.58-3.11-6.47-6.22-6.47-2.17 0-3.93.95-5.41 2.83H195V16.7h-5.4v25.2h5.4V31.1c1.22-1.75 2.3-2.56 3.65-2.56 1.63 0 2.84 1.22 2.84 3.77v6.06a16.93 16.93 0 0 1 5.41-1.75v-5.65m13.4-6.59c-2.16 0-3.92.8-5.54 2.83v-2.43h-5.4v11.58c1.88.14 4.18 1.08 5.4 2.43v-7.95c1.35-2.15 2.44-2.83 3.79-2.83 1.48 0 2.7.95 2.7 3.37v10.37h5.41V30.98c-.13-5.12-3.78-6.6-6.35-6.6Zm9.2 22.22h-6.35v4.44h6.09v1.89h-6.09v4.58h6.5v1.88h-8.53V44.71h8.39v1.89Zm6.9-1.89h-1.9V59.4h1.9V44.71Zm6.88 10.1h6.77c0-3.63-1.63-5.25-4.2-5.25-2.7 0-4.46 2.02-4.46 4.85 0 2.7 1.62 5.12 4.73 5.12 1.63 0 2.7-.4 3.93-1.08v-1.89a5.78 5.78 0 0 1-3.39 1.22c-2.02 0-3.1-.95-3.38-2.97Zm2.7-3.63c1.36 0 2.17.94 2.3 2.42h-4.86c.13-1.48 1.08-2.42 2.57-2.42Zm16.65 1.07a4.11 4.11 0 0 0-2.7-.94c-1.76 0-2.98 1.35-2.98 3.37s1.35 3.23 3.24 3.23c.81 0 1.63-.27 2.57-.67v1.88a8.8 8.8 0 0 1-2.84.54 4.68 4.68 0 0 1-4.87-4.85c0-3.23 1.9-5.25 4.74-5.25 1.08 0 1.9.27 2.84.67v2.02Zm8.78-2.55h3.11v1.74h-3.1v4.99c0 1.07.8 1.48 1.34 1.48.68 0 1.36-.27 2.17-.68V59a5.5 5.5 0 0 1-2.3.67c-2.03 0-3.11-1.35-3.11-3.1v-5.12h-1.63v-.13l3.66-3.5v1.88m10.15 0v2.28c.94-1.75 1.9-2.42 2.84-2.42.8 0 1.48.4 2.3 1.08l-1.08 1.61c-.55-.53-1.36-.94-1.76-.94-1.36 0-2.3 1.35-2.3 2.96v5.12h-1.9v-9.7h1.9Zm24.88 2.55a4.11 4.11 0 0 0-2.7-.94c-1.77 0-2.98 1.35-2.98 3.37s1.35 3.23 3.24 3.23c.81 0 1.63-.27 2.57-.67v1.88c-.67.27-1.9.54-2.84.54a4.68 4.68 0 0 1-4.87-4.85c0-3.23 1.9-5.25 4.74-5.25 1.08 0 1.89.27 2.84.67v2.02Zm-12.72-2.55h-1.9v9.7h1.9v-9.7Zm.14-3.5c.13.4-.14 1.07-.68 1.47-.54.4-1.22.27-1.35-.27-.14-.53.13-1.07.67-1.48.55-.27 1.09-.13 1.36.27Zm-84.52 4.84.54-2.15h5.27c.68-3.1.14-5.93-1.76-7.68-3.78-3.77-11.63-2.42-17.44 3.1-.95.8-1.62 1.75-2.44 2.7h3.25l-.68 2.15h-3.78c-.4.67-.68 1.34-.95 2.02h4.46l-.67 2.15h-4.47c-.8 3.23-.27 6.2 1.63 8.08 3.65 3.64 11.5 2.43 17.44-3.23 1.08-.94 1.9-2.02 2.57-3.1h-4.05l.67-2.15h4.73c.41-.68.68-1.35.95-2.02h-5.27v.13ZM208.26 47c-.27 0-.54 0-.68.27 0 0-.13.14-.13.27l-1.63 6.47c-.4 2.28-3.24 4.57-6.9 4.57h-5.13l.95-3.36h3.24c.27 0 .54-.14.81-.4.14-.14.14-.28.14-.41l1.35-5.66c.4-2.29 2.84-4.85 6.5-4.85h5.13l-.67 3.1h-2.98ZM132.13 0h-1.09v64h1.09V0Z" />
  </g>
</svg>
